<mxfile host="app.diagrams.net" agent="Mozilla/5.0 (Windows NT 10.0; Win64; x64) AppleWebKit/537.36 (KHTML, like Gecko) Chrome/134.0.0.0 Safari/537.36" version="26.1.1">
  <diagram name="Page-1" id="td_AMs4Wjt-F2BEg0jUF">
    <mxGraphModel grid="1" page="1" gridSize="10" guides="1" tooltips="1" connect="1" arrows="1" fold="1" pageScale="1" pageWidth="850" pageHeight="1100" math="0" shadow="0">
      <root>
        <mxCell id="0" />
        <mxCell id="1" parent="0" />
        <mxCell id="rMf_m6I-8TjlrymASvV_-1" value="You" style="shape=umlActor;verticalLabelPosition=bottom;verticalAlign=top;html=1;outlineConnect=0;" vertex="1" parent="1">
          <mxGeometry x="80" y="270" width="30" height="60" as="geometry" />
        </mxCell>
        <mxCell id="rMf_m6I-8TjlrymASvV_-4" style="edgeStyle=orthogonalEdgeStyle;rounded=0;orthogonalLoop=1;jettySize=auto;html=1;startArrow=block;startFill=1;" edge="1" parent="1" source="rMf_m6I-8TjlrymASvV_-2" target="rMf_m6I-8TjlrymASvV_-1">
          <mxGeometry relative="1" as="geometry" />
        </mxCell>
        <mxCell id="rMf_m6I-8TjlrymASvV_-2" value="Frontend" style="rounded=1;whiteSpace=wrap;html=1;fillColor=#dae8fc;strokeColor=#6c8ebf;" vertex="1" parent="1">
          <mxGeometry x="200" y="280" width="80" height="40" as="geometry" />
        </mxCell>
        <mxCell id="rMf_m6I-8TjlrymASvV_-3" value="&lt;font style=&quot;font-size: 10px;&quot;&gt;Inbox&lt;/font&gt;" style="verticalLabelPosition=bottom;shadow=0;dashed=0;align=center;html=1;verticalAlign=top;strokeWidth=1;shape=mxgraph.mockup.misc.mail2;strokeColor=#999999;" vertex="1" parent="1">
          <mxGeometry x="70" y="370" width="50" height="30" as="geometry" />
        </mxCell>
        <mxCell id="rMf_m6I-8TjlrymASvV_-5" value="" style="shape=image;verticalLabelPosition=bottom;labelBackgroundColor=default;verticalAlign=top;aspect=fixed;imageAspect=0;image=https://miro.medium.com/v2/resize:fit:900/1*OrjCKmou1jT4It5so5gvOA.jpeg;" vertex="1" parent="1">
          <mxGeometry x="195" y="220" width="85" height="51.94" as="geometry" />
        </mxCell>
        <mxCell id="rMf_m6I-8TjlrymASvV_-6" value="" style="shape=image;verticalLabelPosition=bottom;labelBackgroundColor=default;verticalAlign=top;aspect=fixed;imageAspect=0;image=data:image/png,iVBORw0KGgoAAAANSUhEUgAAATYAAACjCAMAAAA3vsLfAAAAhFBMVEX///9tsz9rsjxpsTlosTdkrzD+//1kry+Fv2Da6tDJ4rtttDzq8+T6/Ph9u1STxXW+3KygzYWLwmmp0ZFxtUbw9+t8ulb2+vOz1p7C3rK62qfz+e/s9efX6czN5L/j8Nuu1JiayX3P5MRfrSWPxG6IwGWkzot3uEzf7dWey4JcrB7V58zELbUtAAATzElEQVR4nO1daZeiPBOVJAguiK0o7rhrP+///38vSyqphAo607Z9eg73w5yxxZBcKpXaEjqdFi1atGjRokWLFi1atGjRokWLFi1atGjxLehP5of7T3fit6EbB5wJf/zT/fhlWAVeDua38vYn6N5YQZsnrj/dk1+F6FSy5vH4p3vyq9AdSGn7/Ome/C58ipK2YPfTHfldmCWCMeYfuj/dkV+G2SFJRovop7vx+5DOWlFr0aJFixcjzXp/gPvsO/oQzYbr72jXje5mONyYC3E3ff7Xx4Mn/ghssnxyhPfVYZ4kyfw8XWZGB7M4SQ4ZfFrvPkYe415y2W9tg6K7mifhWK6Ym2V8S+bS6Ij2o2QCxm6UX6Y+dIbLj/CWJOFh5XD0u7196OVmH/MuC9WN2UfizZfPjWw3ErxyU54H95PVY3spWo64z4u+MZ5zPbrqIWwHuakqxLb8sN4nfv6xCGfk141WxhPvxr4yatdXr2zPPxc3j0b5NzxYVPc6lx+m5Yf7OW8b7hsSXkS0nIvqjsUt+blX/nVzK34k22hGevD/lDOviteE2YOme6HZNCuGUJGdznn5F6/4sMt7a7R866NWln7lQuVCcEzgQr8Qib38phxzFUXygmPOyVQI4xHHtlLZzs2ecXEt+hVXPxO9h6zNQv9vSCvvlWwbm14KXv+NJPteDdI75U0shP3cmPjUAjepWuGXzliPVRxyMUxQ4KgbVpflfv3sbA9JjIwn3F3Ue+Zf1p1Uki32j1hLQ2E38Dx40iRvfVqK+aDQin1Jm9/vTKnnJi4gIN1R1QwLj4FukJ+LCIj8fxE4iuRl/Ly+1IfER0jeog/yjqN0BrR9PKKN7PPT4KHbtcmYGiRjmEB/VXIqP+zGdA/EZW3S5t3mqJViZCRt7HygBEGgmNyn644zrhtvxP0LslagpICG1BOFQktuifDVqlPOKaCNH+SfC91trEwwUEWbh75kxVpC0pZ/lJeYsu4foWMLxFp5V7itOCTy1g9o657r2uePwDyXHZIBa8ki26w3WW43+NXNDGmTgxR8fpguPiYemtjykWja8FiL1dNBW3mJGCRJblShWX2RHdsKdJU3mS4W07NcaYCMR7Ttgi+R5jXE8RdV71iygb+s+5f8ueZdXWPaKh4+79UCuxknalRsMKRoyxu47Eud6qSNifnqvtkMt1NPi4Wo9HAUqj9xtpCdmy1veNo9oC2d/5XpYSBwrAqxFC3DZtqeGbuUZGDaxAgt+KlWTcVqWaNN3MbwIFy0sQHYxp31WbdWCe9S3ViEG3RbrPAe0Lb60nog+zwhm47CahS+ZTGl0rBAtInQnOh7PbBNjbZgqo1sF20c20WgYmGWqsuE1fGFnnnNtG28rwtbbnkdqbZBkH2HMGra2M32Aj9hpJUGw7SdsPA6aAsM5yhNYM25FSKoNBsf2UbAVT+uRto+vriMQneaaHMl4zRtpxqxioGyaUybwZqDNn4x+VBTihdCfVWPpP48b0oQm2j7qvEBCKhigu5Fal7/TK61ijZqTVFfFrKKaBOms0jT5lue+FD9eoiooW67hWnaSNvki8YHgA2oWIt6rHwwJSaqYiYY1r+MYKnKfQhst1lyTdMmNtZVIXyR32kIYx5QykM10UDb7rGwMeH7T4ikoCIGW6TzRbiyewm0sZDq21ToljVtom9eRXsJNzswE4PtP9S9om+7euxcpTUrsgbuTXf9jyfiI5Te72Jh5mKAglqYNrGgOncEH2KCaGOJRQhN26Wm6oGMoTY/yCet1FYDbYuHYsTn5fy5s8f8Unr/PrBCM+yCQptAW0Cuw0NJCBsh2mrqiHblJzZtU0Qb/N+3BLfC+qFPOnvC+JDi8YQrQQ7+aEdnuD9SoU1FGxl7nYHmHmDa7GjjX9AGkuf/j2RFkuKm7fOxsKmClNtjcQupSG9vZE9w5s97Jm2nDfHDzhpu6eNJaquCv6BN6Tk6EJk8oO0J40Oo4Eb8eMmlKxqLWLdFHJf2gZI20hymaGOJbcl8Rdpo2h5Jm8P4YEJPLM2Eoo0JUQvEym9udC5rs5pbP2GnvkEbGSDeJLAsItpGtp3zFd1GuzayQRdtO0egbr5fxBDzqtPGb/vl9EbLqe9KW0S96Zz5KJDGSsNKhSnJNJGKOoUvpk2ZGOQCnjWvpF1SWzG/dJO3cuWs0cZLe38d05ST9qO8XTaeeFrmrDAl9QuI+BYFfy+lTVk2Z+q2/WbayMgH4/LByxHZtKnI2Z7kTTRXgm7GIyCOeSnyEgbUYgLyXUQqX0qbDp5SSmXSaICsKYuCcTXdByRtuq0VaZHQ6gJhDDO1MDq0c0VYUEOwjgrN/VLaIoiHUMpheAIRIGm7Uuop0GtL1XSNNq0OSN5oIwQDPJvC1lS01Wz/DgrNFN7uS2lTclz3wTqdc2NQPANSDda0LdmlpQ27Agtqnj7eVnHg6kn3G4JbOiZWaKDX0qYWw/ptl4G7Sx3a+AjQyrKkdZs3QAY9lVQzjJB0cfio2RZyAIa05fe2sl9qinr+9uW0qahl7Slvm6O7R2KGYX0Oz6NGG7tp3qI5wT3yj9dzXwj/YLkAchYU+gDnEoI9vuiuBsbmnZfThha0wDBClsgwJ2iLiMgHTtup+UfYbQOtvnuUftRGSNU54V0xcbD6i5mVuRIXpVjXqLKhSt+8mLZZotu/KDnIYuzOELRRxgdSbHsli6SXoAWbMkO0+pOxXSa8eCeZW4/l5Cuj1gZtHheTVS/Lst2Hzvd5orKtXkwbSl3lt70stvd7b3FmhhTUaaMiHyj5hMggaMstYiVvZLxOgBGi9Sf3k/Cw3+9jVVVUpkh0elmOtvDBuI8cMbATX02boZd5Va4H0wmGUXN5KONDB2/GSO9RtFVFBB37qemv57LPS9QQM+sU2ChCtIlpQtBf3kk+gpfTtnZVC/l7CFHZrhcV+dCORg/XYJC0oTgEZEINwCyOrg6fHwxEXTrTG1BXMhUBfzltneGc5C0YK8PSsoW7MfEDHwQoDfHySNMmU+UFqFKh0nEqsZuT0XQWmIGjvIdHr74qi0SrW5mPqdZVkzbJ1AHTdn5IW1EAV+sbyx05FT63TCcq8lEEniuYq4WDNu1OzKjppdVCuoJaGXQvRQeOgGRW0WU+hDPKZ0mfQdSd/guqxQGV5e/tq+StqvRyhWgxMOWHidsRxWPNbJopTjBQoGdmxkVctHGV9CHT0yiBt16GA1R7las4dgWL2AgcRYtEx/mYEGbRcVZKI68FdwsTtGhcVGZ2r/zAvVq4uKp8ZGY6NzsMBCRJinKeomNg8LK5qQ7IyAcf0t+6aCvrRmWvqeaMkEw2jm9F2jAHTyYrTakVb5utQg8uO+wsd3F78wN/RMUzl4P8mznkPJLiMiJ+NZzk7TJbzQ8X8pbCC6vKI8jOWrkeclYplWGXHzlpUyGyNbkInqzxRcPeMcc2M2La9TDlrNcfj8fHOxEQSLfHWtW97MLx2Oviy+jqzvvxqIUwzeDpze5Fz3pyBijjy4qYk5EPpYy2lig6afOC1PFF9RxGnSfQHN39TowHp+BM5MsWEOFgZiiHTruoMJlNagNtYBusHAv5E53/MdqWp3yK8GBiaYJsojSOWbHUoQtOQdN2bTPMTZvyPeiUBF0TYuHHaAM7JQjOy/us5C4dLi8n7daYZdyOMSZyjBtbUblpU+owo81tulLAxE/RlmpzgefLQXLLMfB97AeZWxioUA/SRLUp7KbNA3GCBFmNNzJnbODHpM2kodxfZPzBCtKTkR7kxtsrQhNtgaQldeTrG8ruAT9G2y5weX0la3Z/HKUyypqoeeZNtEk5jhwl03UHh+i9vAtZw/Kd2I1qzosec207lGMHggqR/RFtsvHo4srRP9z8B2qxXoL67Yj6Z7K4gPmDaa3yk4pXNNKmoyc1xsEtJYMg5W8fr6WHKv5L15l/M7rZIhwExSYJYIzl68N8T6hkhxpStPVt2lQEJqpN75M0s6kAe8XrY9pm58Kxmbx5u7JCNOxfz6NkUAQpB96t2K1L9tkxQlWN2avZJ0Jqx2mNNthskDpCjM/Q1omOi8XxRw/x6K43WW/b22bDmbO/F1q3qTLirB6B4uM0b7q+B1BlhNcOA0RH3X49HJsQVNKKMib8WxwndStZGS13xy4a9jBB/2tQ010SArxayi9nnNpErzb3Otv8d86hc+0UAg32BxuwVClfXevJCx5V0fwiOGapsnfrys0BNpC/iFz6cv6jmv61cNSG6xD7s1ty1RzdOITNDlT+bjhmoVJuxydn6QnyAVSm1Pvnjop0bLpV+rv73CYsfb1DPCEJ013G8eKnzNkXwhVVBGvBESSxLhfAREazBtG2NAw494n9h69Htj/sv+8+DvHQsZJnTrfQIWMyNZHTKk3dqnSJk7tNX4uV73Phk7XfL8GdjlSqkT1xlopO8g5pzwoCJ7Ch9ERsfHwtemVymn2j1UMLiBYgBxWINZ15pY02FS2GZPX3n+4qB/WNK1EtYVANVbuQveYdbGKuYisZfaVKhMEmPf/baYNaum9UB7QRgpyhbdKwnKIjIBx6Uufk30cblNYk33cLhxGCdj4NnSdsMXyeF50iRRv3/ynaHJtDcZF3eqVj7YKttM9EF6Vhsf23aHO4UGKCQj3bsE6cEDGyjGZ0rBjvXfzHaLvTe5H9T+x+7y7MrLDyYlw1QRZ8eajmq2PT1h1ud7ut22VI77v8+01DCKC7yVvYUZHrt9DmioQEZnX0cDWRBVZ+ztnSML6iiSPkOUcii2nbHsQpyHFKqLMtOtvprfw6OIl4STIXLWMhL7lNzbKXdQ8kP+ltHXVJr8DMFSSz3zrQzba7fn+3te3VlC59RXXiBRRtxzQ+wQ+YOH3aIzveTjr9xgNRT01He1RtkDehdzF0uof/dLo4Z/W//ReYaQa5YaoY4OSpDMBm4DBRzIJAoI1fjeM1cyVppNW68ckqQA1ulkTe7bg8P30A9wd7LKfvU6UuV0DcHp8A2uk7iwG4MVygrVbPzDBvs1FdcpkZr1sSN/TBWfmv1glyW+9L4DyhQu5fbsD64DzdwqozGjqyWsX5IuomETnfGd5AfyQfk5BJnnfS1nEshEV3Rk1CHo09p69v7wc2aCtP/dF7nVSwQm9I4T46Fwi1NVNF5GUbquPy/S+1Heinb6wpydwHojAR7hxmQLqcO/do1PcZYtpEMu339+pwAjaQrKiaaeafV7vlVVW965fiqNCp8K7L3eqsZK9yfteXky7O931qQXkhmg5P4WK0ymrMpffprem0Ix5a6wmizf8ov0uV/obDOsHTY0m1Bs/UkYhwalJP7cOWjt0W3BOo8892ygDZ9al66Rdi1niGOPO9y/Q4TCV33fVwd53zBknziJ3ymjYlOhF4KDL9rM9LA1MMjmpWv1F7MpUXo8oX1ead95i7JR4dDMVF4M0v8cd0+hlfRgO/mTPqXAZFGwpLDYGnoBQdMLzRWdSwy19qN3gBGF6l9/ArUP5vpC16fG5RkZKvzvJ9IoFaTxko2nBpJQhPWemp+uCviStKWQLlh9fHGXQPaHojbeqkkNeAOHNG0YYPf1LHpxVr6Qw4wWbyDl+hwoNGzSWsEky6L++k7WVHLFY9rh9Goo5gG6A/whJeBphAlIzdmzCPqxD3AY5RwQ4eKBhQbm+lrfdC2qijLBRtF/RH0FXlzoYlJUodoK2salLxbhw7AYGEnMtbaXviBLdnwWpH2HaQT4qnYBe/4xFmoJmkgV125aYKcgfu/6BaWj6s99L2MEv1NMhUm6INezuKtuKPMNlo2koPLGmiDSb3e2lzRkL+FPTx2Io2/C09SSnazElKS5v83Ztpe+Is1KdAJ5CVbsOjgdBy6farrQnYIZoZSwLYx0awSS2vP6Lb3MWQfwZH6aQ2QJDDA9vrS2c+w6IHgM04Vatg2gY4ogXLK/gW76btyy+ZqIZEBze1uYsWygs2ZlOZoGYeIlYRZRzFiINS8OIc5X28m7aXnCru2l+lnSu9zvaUE1oaFIbPUKELV1SvmJiBr4VOuVfnDILSfDttLzjDHp93YEC78j7M4iF4U3JPFpyxgkiBIhXgRG1fV+KmD64DslXG/G1V/V9/Y4LzjEAcOPosNXpvBDpB1urALPVELM1ZdeoNGCUqEA25xBTmudoIq7ZFlbpu/ZY6xK++n4M+GrOAGaY8T6cTvcMJpEuxJEbL4Wy4VbFaffKgfodB3NvMhvqdLX7tWGA2XxzC2+1RXP8V+KIRwtzFkmZQnKMDffVmer01mPmDm6ezeiqWhg6j40FyEypSio50nOp0YvF6P/M0uG8CeZbH06gf8aLQkILRm9GH+AQtfQU+kA69ogVFsBg6TMWyo/Ts/U6MG3fzPmDNzkgjqENH7EAyYyhcsqUC7eYbG6+EHuEDlNuyFDQbvEW9US8ofApMXBtqNlKpqYM+M8/68Yx5ndVyYcyuwl3UCnnEzcikmsQ+PpH1NbjTZ189JC1pzq1Vh7jwsJOhg+xZYL2dqZN+GFuJeVA/lcesgGJCfJrhvWiCBsD9d20m6RavOK1evvokcg1/e7TlIA0Dwf1iA2G08IQvOM//odKw2UdSfp1/77MLmW7cTbgvLxHJtf6qoumg/Lb4OnyisuBluC/O4R9gMn2itqe7PMTjSj13t+NDHF+XjnW321tO4zj+WB2d73SeHVcf+SXTJc3K+rjIbxAvju/fet+iRYsWLVq0aNGiRYsWLVq0aNGiRYsWLVq0aNGiRYsWLVq0aNGiRYsWLf4a/wfDfC+M88LzEAAAAABJRU5ErkJggg==;" vertex="1" parent="1">
          <mxGeometry x="340" y="217.04999999999995" width="110" height="57.84" as="geometry" />
        </mxCell>
        <mxCell id="rMf_m6I-8TjlrymASvV_-9" style="edgeStyle=orthogonalEdgeStyle;rounded=0;orthogonalLoop=1;jettySize=auto;html=1;entryX=1;entryY=0.5;entryDx=0;entryDy=0;startArrow=block;startFill=1;" edge="1" parent="1" source="rMf_m6I-8TjlrymASvV_-7" target="rMf_m6I-8TjlrymASvV_-2">
          <mxGeometry relative="1" as="geometry" />
        </mxCell>
        <mxCell id="rMf_m6I-8TjlrymASvV_-13" style="edgeStyle=orthogonalEdgeStyle;rounded=0;orthogonalLoop=1;jettySize=auto;html=1;" edge="1" parent="1" source="rMf_m6I-8TjlrymASvV_-7" target="rMf_m6I-8TjlrymASvV_-12">
          <mxGeometry relative="1" as="geometry" />
        </mxCell>
        <mxCell id="R1qdB8vJToaFdnoYevDq-4" style="edgeStyle=orthogonalEdgeStyle;rounded=0;orthogonalLoop=1;jettySize=auto;html=1;entryX=0;entryY=0.5;entryDx=0;entryDy=0;startArrow=block;startFill=1;" edge="1" parent="1" source="rMf_m6I-8TjlrymASvV_-7" target="R1qdB8vJToaFdnoYevDq-1">
          <mxGeometry relative="1" as="geometry">
            <Array as="points">
              <mxPoint x="410" y="390" />
            </Array>
          </mxGeometry>
        </mxCell>
        <mxCell id="R1qdB8vJToaFdnoYevDq-8" style="edgeStyle=orthogonalEdgeStyle;rounded=0;orthogonalLoop=1;jettySize=auto;html=1;entryX=1;entryY=0.5;entryDx=0;entryDy=0;" edge="1" parent="1" source="rMf_m6I-8TjlrymASvV_-7" target="R1qdB8vJToaFdnoYevDq-6">
          <mxGeometry relative="1" as="geometry">
            <Array as="points">
              <mxPoint x="380" y="390" />
            </Array>
          </mxGeometry>
        </mxCell>
        <mxCell id="rMf_m6I-8TjlrymASvV_-7" value="Backend" style="rounded=1;whiteSpace=wrap;html=1;fillColor=#fff2cc;strokeColor=#d6b656;" vertex="1" parent="1">
          <mxGeometry x="355" y="280" width="80" height="40" as="geometry" />
        </mxCell>
        <mxCell id="rMf_m6I-8TjlrymASvV_-14" style="edgeStyle=orthogonalEdgeStyle;rounded=0;orthogonalLoop=1;jettySize=auto;html=1;entryX=1;entryY=0.5;entryDx=0;entryDy=0;" edge="1" parent="1" source="rMf_m6I-8TjlrymASvV_-12" target="rMf_m6I-8TjlrymASvV_-7">
          <mxGeometry relative="1" as="geometry" />
        </mxCell>
        <mxCell id="rMf_m6I-8TjlrymASvV_-12" value="Database" style="rounded=1;whiteSpace=wrap;html=1;fillColor=#ffe6cc;strokeColor=#d79b00;" vertex="1" parent="1">
          <mxGeometry x="510" y="280" width="80" height="40" as="geometry" />
        </mxCell>
        <mxCell id="rMf_m6I-8TjlrymASvV_-15" value="" style="shape=image;verticalLabelPosition=bottom;labelBackgroundColor=default;verticalAlign=top;aspect=fixed;imageAspect=0;image=data:image/png,iVBORw0KGgoAAAANSUhEUgAAAVcAAACTCAMAAAAN4ao8AAAA1VBMVEX+/v7////9/f0AYYrkjgAAW4bjiwDihwAAXogAWIQAYYnjjgAAV4T12LDihgAAVIJym7PmlgAAaZHww4Y3fp/yypL9+O7mmCn45MmuxNGIqr7006HrsWTE2uT22rabusr67drrrVvppjy70NtXh6Ta5+znnzbsslfx9/nh7fLb4uiVuMrp8vUrdJdfla/45MvuuW388+XvvXg2epznmhyKq7+yxtNUj6tumbKjwtF5przA093P4uoab5VDhqUATH3z0qfuuWHzz5jrq0vuuHPxxYTllSmvHU4OAAAgAElEQVR4nM1dC2PTuLLWyHViN2kDoXTbQqCQDZuevigU2qZp2EvPnv//k671Gs3o4Tilu+cIAhl9kmx9Go1Gkq0I0EGov0Ko/5oghQ3SCVL9ab5JiQJGuD+mAJcVRCaiA8qvnYxIClLXYHY/ncwBIIW2512DYt0FJSKDggu0hhJocUC4E0KKjAgRYVQA6Iz+SoDJ13FZVg9fT5ekTr8eCJdeiCJIO3heHeE2i8SP584IIiHopiAqD5QmWz+g/zA0xegG+uoj4K6sqqIoqqouV9/nkc7m87ZdF2x9ZcgEi+Ao1VfAkmkPN99sNFH9QHE5OxGHXD1FKumv6yucjKuiavR1W3Fb702fSWWdGWSdXbCIEE3y6onnjdJiBQS4P2D+FezPJqgktSGqI0WgRjEKi7oob0+//T4stdaOVjPomrcFTbIRaywTI/vqeJf+g00jBRHcBVEw3JiQ0lcQ7irrURMpA/XO2mebFB6q8rapi5wtHoaK2bI4VaWygjJ529CAG05UGk3oayZITwm9AVJQRgk3FZ8eYFyUd6Dv5eTuodTGYDGPFecfCIRXS5wdriQZu7yqdxi3sGSRaIWObpcOrHvKLiKMq/K9rokEmN8VdcNsvbo7XJ6dzT21nYpiN+FGJkcIdnwiBGhsBwilMa/Jkcvw63QOuApCi4JCq76mathef7goq3NdFcPskTKzVV3Xw+FwvPi+dPVsK1lyNLhq9+D9I/A11XHaMhkRzaZJTdynoOMmlTREoR3V1yWCN1JciFGY1sXwkOSdjMtiu1DeQWNr6+3zxXLevWRyE7bqNDItYFLLnivZtagfT8wncv7y3mArs+tRrsfuVkhEgLJeMN+rivHMlaAmX3v1sK6NU7tdVeVQ+V4AqbxYcozaRsDGYEIa9XaVBMHyoZKCazyqtU743wiTYVHuSRIhDw/fHy1We80srBnHtotqeDPbvFhHN9CmcATGgqVGqxy4jAC+ECu0az22LTjjwW4B6FW7oAFG9DeRM0QXZVG+wEqQ9p7f3Za1mjCU5ZHMlwyZknP9P09N+q6Rp0AXQ8qJkO4taLooKhIouUFqgaBdCCK0JTC+FkN1ODs9Hypm66+T6DLxNSN046BXVnx1hafFmZrsdUgEs7wtKxKtSX2p7BIiGxGicDZujOkJpJI2zN491MpFqBZz6H6Z9S0qkqi9KO33rO9DxyCY+gH90oaKGCV2QaBiA+1oEYqKOa2Kam+eQHXx89Oxmi/U50vaZTBppuTNbAAyC4zYBGFA2wtoE3k7/dQbYBZgg1bMhqNhUR/l4bOFmuJW5ekGRaKRpX+4EKNMYTPmpKPmg2WG5oHgWwe0vdOtQUGuGo2dkHbT9cIUjdNwriZi5c0ZbFRyQsitLPDy3B1QTSI6CsDHMoczDX6GQLpHUDiLyKOzcVGuvPj+9mLCVWm+UFa2PJ+R4au15HjsZkKMqlx2eoq63RqeOKvbLHALEkWsQ+GwLsopRpz+KIfvgSYFOFRWtqq+Q3vJGAtC0hQyzJJAcaVAhC4P9pxuZNAvYV/nKH6jHcIn5QNY5Ih1QFdVdeO1SWnnLEh+sqdtwXsyTreWrFZSJE1KhQg1lbHzAoEFAV7Nf7FERJx7IeQpK7SjhPtACJopTootdl8XoxOnEcqnrd/T9tS24EKvdh2FXRQSN+EWmKXRRrLiTAXmNZrs2n91luC/HJAO33i0SbqgMD+v6m9YEEzr4V2YF8SRInY0xSEjX3JoGNynHdW1ad2j6hJkyhCkItajv14S3JTKh0UNPx9OIMwLcDdUu2Fm/WtNyRGXzG+BCLXLqGb1kpSWoTNZEwpBIh10R2mfJ9fJiZBFT+tiOPPq9/0FeAHVEg7VOleFu4uQKZl7qkJ0Ecm4FSpxuvWySmL7nP9wb19AV5SVHF0mj1LxpDCGwIpSxtqn/rsvlL81AY7EJdP77Ta74XuzrpbBRegeYrSp6HcXBZvkr1urXbeSu57IFhQuquoraaRMXrUQXlTjWdiasRYxhYu0L0JpcRCNW9HNtwRv7sNuQztYiEKMhvcddaNQ4DWz5dyVVbEkbj9Hfd7vQ0XsSea6Li9nUKSEMMKZWD9fiJuiU0gvX4VCB/Q5ApwVzLfKpoOLhthyNW9P+oTWFnanEJ1WXhrlFZVD8PwYIb2LnIgIUMiiG80Yc+iLxiPokne+amZe9QIgiTpFo5ME7Gs0IkRNkN6uPtUOcC3nucM+sB418aQhgfzbBYVpQ9cS1ueF2bjaLpR/6++KGebQXOaEZIRfH/gfCH4e6RggCteKCuFTjavyiCAB6vPCRD90NIMkKoL5WDuVISr9PBaAJ+vOdHSFhG52QwkNWD8mtKPmy/vGcM67FKSc3aIyu42Zy7hYMuBhBKRQ4R65koFl6MhYjOqZMume7PmmbmjgUBgdImI39OxBubCteV0BF43NKBeQRFEAfWvWYloBHBshiqxKX5TnajN9faZAHk9Cf5Y9X9cRbdRQOVAd8sLJuNDTg0zJa+83FYzW+CH86WEDk97eAYjTAlSIItrR+UNRXgB0yTtVXuzXeQYFtqWJS1fuujlU+nms9yqo+WPCOuOYCu0JMk3g7BaNhk1QZTfVAiukUCo0aW+Us3WaTIrX4cZWZNuU3RaOe7SW9ntjOaR0q49GcKuPPoJeIhSiiHb0edS1cU2/NgP9tEteOFHPdCqfIIk+cbbC7KuN8XbDP49JgNSkPlLdSOiGJvnKkNeOTtSDWctOlkD5BMpqJFF7a35XAO1DFmXrLjY9Lo0T5kNO6SszvDkZX1HojoK/iKBX3ACF06ooG7OZSBpEGN1WbeBQQZOLsJaRBkcoFoFtnwyGP6CaGwjPF0L/xouxK5RFjcKdlkU9gxxKI+5H226YC1F7JceRIF+cwPTcxLpnjLGkX+AjcWXhWrw72tLNN0Vnw6KaQZe8clUWVXkWE0Ruj/DjIkQOJfpqWyq+cFdSLU3OXzbxkhr+DqigPklmtSOvdhxVqy+reae8ekFBuwQJNDSCVIgiSKyfbwkIkousICkQGJz2EXTd+GpVhOkZsIhuqLKazTyqW145LuyDXRHqhyZze2zwkWkUaE0ExHcJFAzqHvxni/SDghNgI9TdcHg93rKpuwlQWFbFaBnbtmRe+NYo7NCOXAwFkipzyUSvljgv8CTyOiRXn2lESltTnlhXlPrYZO1DELPQDZ0Oq3OZQiGRd1IZVytCuQp1ZBasHQA0v5KYYPtF+rl10szgdNr3oHC+twGKsaTnPg1dlOVpFg0KAtiryNyAoraLef9T0nvOodR/zQSimOQZj4hovBGggg+dUBLBiA8D0P+jKZFRtLF5xDiJRnn1KoHaxQ1RyNS37X1uPy/IabvAtMRe+wiRGYY2dKPjaidVciMUZlX1ELg42bxg5gbVwxlkkqYjM6incXPntTX1ZkXxnOgSubsKhK7oXa1WYDvnhTulsHcQohBw1s6oqzrOC3zqmJoOfSDRq5nQEWUz8GQVOqPwra4P2/PygozCQoTKUJBMSKPrQxsjWEbecW4Z75Lomsp351hcVOX9JnkbBW9crWlckLtV+hK/8ASmUf2/ZPqeCUkPaZ2Tv3GgBgnCiE3Q+Tl9NiNEXW9naFHpnS6OJjo5CkCFgD32vDa54yg8O4WZEFfEVSJtyxKoqst8XJ3PgaFCpAuyEXq5sJ7GBlWIgJOIoCTq11+9Yrc4ESlUCLfA6JWYbBhtgCZaPhK6oDAvFa+BgmbyGhbhTE1mVzKg0vdRoMoFYQ9mKH0OXrBxKywaCeXXEqEi+yJSDuh6lC7VCzJkOz3sip5Vjlf9mXTIq04yKep7YKhTde/522YgEQwNKoSan6bhnwyR8W437UnB8OoiYKqnUmvywkxtyOzxG3l6Jfg+TNTho1v428YsEwILmhobOqBWX60wG48OIZE30GDzLMEUOApUT4HqqY8IBH8vuNqQrCckhWTELwfimbsHcXxEZxTmzXTrxM63Gte02oP1eWFZF9vVOVDU/UPXacjqTQoVkX3NVFUK3EBEVfUa+7x6a5Uq95JUVxTmTZ+27x2afcFlLi/5yN+rohhNIEDZOhTTe8ig2JEc34J4+55o1oNEjAY9jNyM60ud0Whdn+4IrEfxq3orxr7ucqYfeH8RbXIl8t6PGgt7wy/ztGDWCTP+gElBD8iRmMdF0IVCWmx0nU5o0PRoq5KK0YouyvrOVGo63G66d3EGHfKem3cOPPpEXnHfUERa9EyhvaQQxTsAejuoYRugp6V6mk3xelNum7fghOCbK3FevdFVriRBUx2VulSpbkzi/FdJs2SNJzwn9xgkak5kV5ihi1EI0Ga6r9YJFQl7SgerQi8Crsur1rf1DqIvLLKeYbtGKBm30L5GIWlS44gECwlhHWr6px1pg6eJRSsa5T2r7PPCSzXvv3gohu8hnxe/LPWxUKvp3KFxu+aXXRF1pKzr+ma9BsIIFFjSIHJDlDs0UTUYmkrqIuChKPXO9f2wKIaTb6VW2Pa8ippm0rVdVPX56Un4pPUmQfpxi5XCicYBigxf/mQ0Rzj2kaCQDVBfx9gKUgY6oOoR2K/Krqi3iepZo756m2VtXnlR6/M462Ix8x591Gvz3Zi3BOpzPNHrHlKrMyA3QYHfdCBsgjaz0mqklgXURsD5mdLDap5RHM7t9Gakzzotyxs8uwjYBjh9usSgCSrc/pZzLtxVXY7MkYRSUMQTRSnkr493QNkRCeSWqNAZvanUyA63pXZJGy/WOAgZe4J5QR1ddFuog2DK4e0ZMktpSbQMQ72jJp5sSmx4FvdV3wZxMtk0QPfbDdDJsFBbMXvVdqUewlTn7i475TXUrqpGacuHO8sRN2D4f9K8CTcvoHYgxxqftaK6PmsIdofY3bZYNYY6/VLLKFUxhbF+L0PAyUNV3tD3RlheFm1onqhjoaraH7GzSUXIPndg0p8cnqq50twDvgLkP3mhFT0ZV1X5UJh9VoDDodq/2qRkfdhp+TAl3TqgCPgHIuJYW/PKRkssMkTtV38B6QuFjVDzH3gDSPrp5ui9Oryh4XWoPSw4HVXNAJbJC4mSAWa/N8PdcGEtB0kBEh9OcAKipkr5eYEbV9ClkuSP+c+ZAxn8yQvt6LMGgLtKHT00XBjdaoawerFZTwR52rRMuTqL2WkPEthz8P/9EHWvsK9tgDY28mtVFQu7fQ7zVT2ih5J0KLmZrz2UjS1YbsAOWgM/nSNd1DtG0TZBFEHLEt5Ss4gcCjEqeN7ULXdBdec9mTivtRHnq+H5nA0mLXkdN+oks0qfCkWSsPGPCY4VNm4FU4KARImdv73rto9c+aRhgKzQHQXKB8xvf7xINEe+ZK1x0/O6qBf82ViZy+FgiefqptA2JfWCEUGSV2WcACJGhWBJCWo7LP0Aj/hFVL4YTWGjvLo5jqqqvpWYao31sArKz9HjDUFJhDS9pImAKrB+Q9QL3VDwlgJCIYqIUViHNl6BfS2+a179DabjarRwYz7y6Ow4jTAkkufeor5hI7o9mPGsIdqMj9/9Dm82h8ZmdLrnTh6JjSzNa5TTBfVY/SnkOOJlscjwGjxsYDJ/KcQ9DaII2AQVIdo4pRfzLErzKjpn94fvF6vV1/O97aIqunsFfN0lnYJ8YUMVmTCYt2hZJjJ76I4m7JxoEZ6GwnIxhzV5VbL5cvH1oR7WZVmpUBSjh/lacwxYRYHzAsDtbNfD49810ZEsgsy4cl5YZ/SfCQ2xayf9MDvaG5ofP1AnHNcNu+PTexncZiR4MnC48AoLicRpw2o/eWsXRbSjJC6wXgnh6SjM76A9Lxz+0OvbReO6lsVqcXQ6nbtdrxbbbj46ToI/0j/ORkO2cSKD2Gb/2lD8j3YxLlBUPBmFdXlhWWpNHRY3i+Xc/C6SAHq3djjyAkHRvroICaxq3bzXZwxJdUhr3t+MwkXZjFTnkxOjcq5j0qqz5wk9amPML/JRM7Au/H2GUHINTgn/GLocFu4ZjafUBOcFwnYM/s59uFki6TmP0qPPFNDzDtx0+ocLfxsKp+rgl2LKh/oO/gahB+ykI1FRGzoRAiQ1MT4OZRFpdGNefwVdw6u4UWdrFae+J7ezQFEc1IGTjaTOT5aT+8lMrT/m512YXCVezs7WtEMbyAlfH1jy9gy5pKmG1tKZOr6wqldLIK3OC6ERRKB2IK6tcqBX1VD95Nq5cviIU5s4/hVgcjseDRs/+uH2Tj7RLDGlacL+8c7rtnAMLDmIq4M3ibBzvI8juk3805bw050uHiir+ufsRv/WQbGYp+gJbpsHOy9wPYJ5T8vzUWn84sYxru4graw4Fl5g6nJYvQ+eh8nPAgKUjB4Hr1/u7vbbwu6fJPn+O5U+nWF3d+vtn8fERMHAItf7aBK4wmrb+E2fFl0XU2cp6QSLRFDB1kr6J92YksFS/5AdhpJS5QjBrw2tQ5+2qIZHrnzyNr0kEWkUmx/g3cetfm9Lh8FWJvR3XNeD/dfXPZeeBszb6w8+HLgaArw0aXu/7QO9rmACwP1DrdXq1v0IEjOWQPNQVKJ11f+wOt6UBQvl0rapTcHHoFNKa9MeozN2v0CvD2EFgm7UROx/TpGU4bXJ8e66Q/re1hfc6A55ZRR5juHkVvfCeu8kuMk1Afy6tq+fks5GniSttubcg0wps+2Kt8Lw22b3YcuxQ8D+p/56Vi2v6u/PLq2gdPbR+kMBr9k5YZNysleX5hdlnAWQ4PZjSYS3DybYcctM7ryxg+XIseo+o5lTadp/tfaq38ALtPvFk0YuM2TA577uwIPmn15LcPZ1p98bNBkGOk8qoStsq//BUqB4HRhecbYsCDne6jbG4KZhthpPwhq11JCsawd5JqivFaMqPhi7Ufg56nac2A9KkRBG2BuBg57XsN8+vM2GxmDqLL/1iEq+/BCFl16d++88r05fuUWjH8M4yOVFM3I/LAGcBXVt4SNQKYSpt2QW1tcNeX1YOadAHf3JxhqnuOoMMEvnoqK85ho2YcnsV/3ni7MCvT8u99c4sM1nxxuN3seDqzjR1buPWOIHo4ycVzKNEFyw9wXLi7I+72pjcTR1PYA028QNRA9TR9rwLl2ufnvaUH++HCKvZHlHcD1o15DGCeqZYbz3SDx3w6HTLjRdzecV8tp7neP/i+JRdfzrK6KvA20HRFB5VzIOsVqePoz28CicnD129dUK5z1mwlWjr3rAqsbgWUstvjZm4Ltrg/Lbv0ae17AJc1oa8gyu1zadlvQzwJGbC/K61xhPZV57nyFCXd5PttD+sa5uw+tgi/sDLZfRdzW//XEjwnlbqgKC21eg8wKvr2P9aK4ha0rPmcUhTq7QGTgjvOoUkFi39UKIGpWUVre2di+9wx154M4KgHzp2qFJH6Io/GmVevdARxA7ECbleakW3w0v/PnPLb0Oz8+yFaI1dLxWY4ndvFz59qATs9r9DvYCFK/bftyKW2HN8q3OhTwdQEIdIt24dul7x5BTJXineR3YMuHlFvoD+ZK5eWwSLh/ceabgPyKKoL/DF9YPx62xBP1zVdrCzqKEQuj3dU0bLIHrq1ExN8T4OwZBBTYKqY6NduASyP2C4IKrjXhJeI1QG2F5TeprkJTmpfMZfabpyoxdeM46QwMa6YKEM7SM17kf7mNe/ZygUeeAV6XM7234TrNSNYX7bzZ8t/dMeI2bMbo+19dcKsKryM1jO1xs3nWvW/rNF9oFtB3Ytrxqt18J/ueEyaVQm9XqOuHVjGmHP2odRr+nn5dphs2jkU1ya1SW8UocAOGb3Siv0WHGa4i6vK36minZ5jW1dLUFFhGg5Jt/zwjooTpk3JLqlK+GV/86JPNd57jopV6T+NfIznrdz4l9t6xXv/OLk4H2yHSHbfdysCT+ADUEIhJMcsZrgGKHzutrsuTkxIvqH2ltjgo2bjnPEGtL7YAAtwhT2eccfUfWr6HrMPreGBlmByTxwSqvr5Ie9tIIlledR98K8vQYuJKB2hoh0NcwqY2gvEI437LXzeRFNiMnK40CXddm2mzswLbndeI8KXPEFElnTqd2lMf2leor3g1TWsqriXhpJvTcz/fuD81reB1QXhmK11S8DkJ9xXlByGDYp6II2YZapRU0AdFXs5A11pOMPcfeHht+zHlehhV1fCWE8wLD63ZsB7ygeXW+mb6/Py0Hg0Zj310e77OAzoX7aH0dhONWwEvkZ/USflbi/tIzISHCQYIiguqr0yP3tNZkaNS18V9V3CGur06AlCUEmROoEzzouCX1XMzra+K3zHQSN/BZOyBg/6Ofmfa3Xn5i4fHDZ70GgN1XvmT+gLONWCtjKNm4Fa4PEG2N8wpvSFmLEbUOUPfeBQ6BJBOxA4J2d74A6Ic3/TO3gR1Qf4l9JfadVoLZARNz9Rtdfw1X/fq7g7fvyFO+6XFL0IEoHre2uo1b+Mq1HQuE+0EML4SoCOYFvCsQf0Anxw2BoRq5nOrhgKbPXhepcYvoK5BNH4PqNgvsq2Lh6sNuaqXa7ao05H48wGnEL88LWPKUgKogU4KOkCLzYC6gPWF+lrYDTQPNx04xvwE+Tah+cc1ycmEOIm4dtwijZGbA/AHhFPngsd+6CdDr/WULlNcYR+xrMIpwfRVEX0UiAGZPzsRFMoKj1n817UPWlpm+qohvztV68FtX+ow0w4l5gWe9P8AqbZo68LOcAlx++e1lvyGXB89s/4v1swJ9DYyeFUJek+uvqbxPCN5/Fc5yY8UNr9uWV/VLVfZh0EIfSGMmU3Ok9cbS2ElfeeD2Fc2bCsc7b17/8ZEMWteNi+CJfdM2L+BGc+28IG1jQ+/ZWwdvLkLU9Uf+u2aS8artgGXILa9UuKoF73FOcK+zc/uqDCqOW+XvEByzL+1b/SGvxGjR1Rjz//7BF9TZ3qd9ra/BvIBWGIU1vIoguReeFuw45ogmSjSxE1LjZ6lEy6qwfqZ1tWD+UNlEX92hdYxXEfoD7l55LaJ5QVBHOr43LBwM3ADWP9b6kOQ14KeN16gZ1kesTS7s7Tp9tZ5XQl8l7Ln6XxjN1j/FbEyD+x3ctB3Y7mwHMI4l4DYKXuP67HGkr7m8ndazIM77tMDPd2GjCVsfMNH3td3x3taLZfr3aqyPO8/yekf0NR34uMUNVsK+NRRteV5D+xok9QWx9QFB57G5yxBSgm4ECf2kAju3PNwvGBF9taOUm8ya32tX+wSWEPMLDBLt67azA9LOc7eN/6q3XqSgbyM6XredHfDzHxDki5sBKVfUzXJ3NY9sHkvtMp3x0nks91/RUiSva50n/Clm26HZwlEU4cetyEaz9Vc3/KPu1ToHLnIV6HnRdUKrrxv5A0K4SgY3RXqT09dBzg7A/v/94cJf0k5I8/OCxGWIPbJkw8Ff19cf/7xCL1CQeYETJL1PWiJZvGPrWXYxQI1TOgzvGuWbFU5dFzgkxfNYZgeY/cS2oOsDERo3emAHUvtblwPn9vbfGgOKvPZb5gWBdfWMwNXb3evHPz71B3+aoUW4aStbhKEL2FpfJTaDU97YvurnL5zyqR9VOqrt44bVElzR8X4B0df0UlDoZ4VTRxfhTRvlVSCvA7OHbVId4wNe/UezSJMZt66vgF+GNqXtqOp5sd5P5ZAdf9z9CUEFqGAbhu/HCmwKIcL5lmXgDB/RmIDE3e8bP3Amxq3QDsRKEfmvwD+hwHml+9wHzrcnS2KaOgFvHK+XlNetLcwSXpfEwtveu59Nu13/3H/sH7hBgM8jBH5BCxsZMyECfcVNFzdvbbjEfYIh2Upr5TVjYBPrLnx4ZUJTm5/czxKf0A48+rz7b+1AtdV7qaZhzlgYn7dhyqBqzsa7RyzA8e4XePXx+Pj17sFV73N4eynf1fRVXPTxjcX8AbTJ6hQ1y+b0K9nWinjd9v7r0D2SSN/ZoRQ3vJoUXZ5BVJ1x4HgcmHGKPEf0Bq8B8t+osYNLeOXyvDR5fvatC3F96R0hIOOW0UHTrK+bBnz1Vm1ovobPg31H3PqbDb2ByA5g9E1ll7vNsxqNMKQb2PF8C1e8qvFUQjJ8C+dbLUFevUZa9TNsakhyz8c0UW+P/UX+woSDR+TYqvQBLjlu/XW5z1+bEHTVXSX+sivh1W+vXj32r+DVboedcTovCJxguh8rvGHGaNwmGNOFstgOwBHuNJTjxen7RNjzS+b6HuSrbPh8vdXruWXY/o7tgtd+LabXu36LqQfO0fWLNabfN9f5gI3RFHj96WMmPKrh6kt/X/E6eGx0+9XuVTRCcIH6r2gnIn3FeYFlbhU8mF2fsmwhrwLmNzUmLutU4M/MCrHvXrfo2Q8Gvk74l7vvdzS613N5E8u3vY9uFen4muXJhZdqPqZ0tLEDO4NmBPx3f1/Yc1PcKj0KblWZzQu4djv7uo3rr+ZjN7qsyWymUeOzdl4bYi+GQVtkgs0D+85v4m9ssIhBr/9vbxd/9nocTeVVTXGNnRgu/dPI+cv0rvf1uPUKXn0A+ekt7A8+oNvkJldCEEEyKp1T4ce1yQjnW2xQlvx9jqE7nANyvDYF343rLsxyXsPAKt9THjq5ws6gn0tKc30mtlG9xND2Ao3jVRnIx63j140xP+gffNl9t9a8gmB2wFoHS1B63GqAswffr6vRLTEwKftqqj2/W6lDVat2du26S4ZXUtne7uA1XY9WJH3Z6vfW5Ns64K6q2HkMTEvUIprXRmG3BvrRm6vH3c/rRy02L3AKi/OCH8PRsAmjSu8Teu7g5GZY65M5qmF5NOeXgX+ZbKPRLTMPIE/uLn7fG6/nVXHU+jbc7tbHtzv2qSrh7JtaFPj5Idy2Ma/E9d0I1ft4xff6QFy9efvhZa/lYgO9PguXn3av/3rzh9r7AX9dbCAXAa7fsudfBU1yNnVB0ueNtSs7Odo7Pz//uno/s1tiXg3mLteS2RXj+MxPZqnwIpgXyJ18eKee0zCbCK4i6HzD8eXOlz9I+I7tNboAAAKHSURBVPxm593B5aWf0346JjNld1tXx5cH77LXM6t9sP/n43/+85/Px8TqAaE3nFh5wnwSp2J0pY2mZ1DoHydzJcrM+K+ueVoDa3/6yYR9771eX8bLAOuvZsuWrFbJzVlPpWk5oFcKuE80h0uFAls2cxFMkJQMhvJ1wixrnMJNUJCfd6317A3ewSZ5uTETXYN/3gUnbWET4Hqtc8qMQCMsbZiFPxS2Hv0W7Me69TVc4AgiNkZB+DeXtnY2yZsyoLT/I0qtkkCPy1UUcA2fthzjuUXo+sgCjwBYVdS++itCeHnxRLRpLtwT6/XeQHSZtrzuH9Zl8/2G1A+c6acp+DJotNbDV4EEzYyCEOCKJX+4APqAZj3H2FYPLWfWBqOITVH1Cq17uus1QNe8hGJmLFHMoGbuRciGWCXREeBaF0Wkw5pRYT71L9iPwtPCEjfTGQ36RzN1wNc//9iB7nlJT2aqzYYhoNaNLo855jstf6VCqgPrz+TrXks4f6hw+la3vDD+DIHoXvdaRjZCJCISd83nW+FltTanjs8TmQgRCTAdVq3Bz90eTsggkOyov4jq7u8+G+QFYrvQYHqrFqJCuCNdfURL8A8BSid2aEO4D9+gz4R6vARhq87s739ZzOlku8Y6XoHwChGe2O6LUZEU2nnFc06q4cWZHWC85WL+joiEfwIlFg25SUbEgtNszvnmli59yfX6WlXlsHA/ceOqJHyFRVzhvxMVAQpR3aAtwpYRvx8beO4gwpOwfQSiMbk+YvpjOFSnP+l/3X9WUN+q8fnqcBYpRlTYP4zysGEBcXZCO4TpgQv0DoxqipSbe3LYFr5P70+kdyfpwAKB8HxomLQFjUoNS47R/we71toOju9dMAAAAABJRU5ErkJggg==;" vertex="1" parent="1">
          <mxGeometry x="510" y="229.5" width="76.89" height="32.95" as="geometry" />
        </mxCell>
        <mxCell id="R1qdB8vJToaFdnoYevDq-1" value="Weather Info" style="shape=image;verticalLabelPosition=bottom;labelBackgroundColor=default;verticalAlign=top;aspect=fixed;imageAspect=0;image=data:image/png,iVBORw0KGgoAAAANSUhEUgAAAOEAAADhCAMAAAAJbSJIAAAAyVBMVEX////pbUlGRkhEREY6Ojw9PT84ODrobUg0NDZAQEL64938/PzpclDobEroakju7u7oZUEwMDLX19j42tLR0dLmVCnf39+lpaZ0dHWysrL0x7ssLC+NjY7o6Oj09PTBwcGAgIKWlpXyqJXkSBpjY2Sbm5xQUFLJycpZWVu7u7yqqqttbW/99/XoYj0mJil8fH3sf2L1wLL2zMIbGx7tj3Xse1rtiGvwl4HxsqD43dfmXDLwn4rnUiTyua767OfxqpnjPgAAAAAPDxTiMjS6AAANFUlEQVR4nO2aDXuaShOGkV0QQgAxiBpQscfPKJrEtOlr2/Sc8/9/1PvMLvjVmJik16X27N2riRhZ5tmZnZkFNU2hUCgUCoVCoVAoFAqFQqFQKBQKhUKhUCgUCoVCoVAoFAqFQqFQKBQKhUKhUGzhHNuA38v04v7Tw+3nz7dfHr/+78IhfX+Uwqtvt9kyqwiyLCs9fH06tkm/CeGmp59ZLfPKJdctl0ug7JYry9rtvfij45y3K8n6q8ulB3FQRvrK8kXZy5bfpqvPnDNPX75XXA+qSluUvZK7XP6Ynr/AOy+DHg//dhS6Hqg9XJy5xKfHJXz1jEByqYtfWeVOhOpZqnS06afLircbnjt43u39+RaOx9or8oQvK9nVsQ19L08Vr/RLhnkmWrNvx7b0HVDQTW+RQ73yqwrLpezHse19M7SunMesKIGvBap3nnF6l/2SP/dKzG7PsId7KlVK3gEOLMml+OnY9r4RFIoHFPpDFaJcLu+PbfNb+ZkdtgYlkFg5szh9ujx4EVKUep67/Hpsm9/Gj+z1Wr9W6KJ/87LpOTU2tAoPV4hwLpfd2vU5KbxyK4fry8kej2314Tiohb9uJl714+U55ZqHyluCVOIuz6ixmdKmyX2jD73l2XSnjna/LLlv9WEZS/fYlh/OfU3s69/oQy87tt2Hc11z4ZM3K6wd2+7Duau9Oc/QjHyfHtvwg7mrvXkZAvesFL5dH/h+PgVRKHzrOnS9s/Ch7Cyv3+HD88k09Njsnp5TvFWiW7nUpoJjS3gJR9wGvv188A2MDR+igN5KPp2wRgrST7WKJ+t9WfzbK4nYPPRcerjoeZXaiW+GyYF0l1Q8q/Be6Gy87dYOZ0jNbvbttDeKj0uvAAI9d8/dmrK3j9Ly57E1vMzFl5IL4CBEHTlyT6Ailp+l5D2cdl1EsrkouKf7+nsELh+vLvZw2jG6zUXF27OPqrjHtu3jiIczYl09q/CL9stj0fN7iuhMv2Z76oXrLa9W38FwBPLVxsHJ41z/fEQ28WThK5c3OlWUvlLl8tsneSf/6pPgTvg0PziLe/xflxmVfjcXhp9usSumb9ZgS58t7yDqalkT/P1V3P+QB3+deNEnZ0wv6Zapl/+n2r9RN6hO4mfly5R6oEyw/Dyl5+KV/ODUAxXt6eeKqIllqnFl+sKQ666SDr1A5cseIOpnTX4XbHmLg2/fK5UM/2q3J6/QwSbxe22LZWW933ArIhxpuV1U/v6L+PuODjJ58NfdsRUcwtP1Nl8fs0KiV378cX19J3uX6fUdcaEJ18uD0+5q9jJdblXDPxBn9VCRvl/i5BV/veCcrdfnyMX3Ikorl3s2uecnbHq15rpcdOHlUvbl/mqH8/yWovOQfy1YfDW4UtRDuLKy8Qf51y8nfO9iP9e1krfe962a8DJVxs0tIZXK7yf36OmQkPqB/X551cZ4nidbVG97yyGPl+f2lRrBxeXhuGf0gHSD6dO+jfwuTyeXaU7LmmNy+Ez8F+fsg5p/75Sh42p1knnabUbtDw/mR1HUEhsUrR0J/PUfosMML+6K5Ecbg7yXajIwBawx/NhImtY0mDEi4xytHuiMMTOVdqambtvRe6wzdWbWP2KT07dMpgsYj/sfGQqyhpzZlgyFuQWBjPfEQbtH0g92RTQMhy35khRa71eI2e5btq7bs8Ui5vitRx9bBEND1xdCoTPiNGu2Lo5aA6bzxqE3HZ3uwlrcyNdQqH/Eh05jBt/F87DtDxNoZbPm+wcDQ8iiIRytGmNg6Ao6wk5chh8cIIgr3cwN+ajC0ECEBn05tWOEqzn5UB4LGdOtRAxGy7CJwYUvQig0Dp6836jQSXC+tEhYFWMtVrc+sKv3lXu+kYhG+lzX1HkPhzylE6CQ6SKPOc8Psv3OYQrXw+y3yWnwTU3tka1bFGNhGOJNp9OdpzebCdAfp/N5t1NUAHyM1m21Wb8J5UVaGMHoUa2Yc91M2xPb7rWlQnskR2p3+vNG2mwVduFn1EwaaT6sM8SoKdd5t4oXfqHQiZr1enPDFqdaTxvzfjXXGkmT28POcKvmOQ1DlyZIEq5bXUfzF/FspIW9WcDNOE5ahb6+HZvcDGZGXZwyngWLRKv2YqInKw0GZIOWlGrVndRgrAURUGhMhIKbwYwGiXlSZNaoYc0szoMZ62PY1j9BECBf6Ry//21KhTftSTCL41kwKSwdTgIMw4N4Eopp6y2CRU9rsnimb9UkUsjnax/3Td1MoNBiRqM1MGUNsXrSFr9BaZcqiz0TcjqGbvajARfFhhsd8gfqHqO6V8UH+VjDKohpmjsxrgP7292YrMcZtjmRpox1LH9m01tB2tZaC70oXkhTY6mw2bHEm2w2LqKN3qD3TJtsaSMY+bxqwmGj1i8K07XCuikOoZANRqbBDU7mW8LL/iRAtrBhGlKu0ZIKjXkP0885VRwWUp23cNEhZS34skpTFlOqubF0qy+jVbcxpg2dgZi55gLDcX00wND6LIEPuYnh8BEMu5A+tBsj+ItTVpRz26aJ5AgXDGUYQ6mQjUaGwa3Bywp5oRAieK8+rk+gR49ppVOPYk46YacP88jTpBB62bxe747wUrQvHUwDLWUoNaAAKcNK8/AnpXMsU70/DMejPIEMEZG20Q/96GZAAa758yRJepjICX6noaj4UNvo17s96OEjshOtk83TcTjs4nLUVLQbGI+Z9iSdJ/6LClc+1O1BSB9thxNcOKhqIWKJd325cGAvwqVjUyIW3WY0IUMRdj7CjaeaM5ErGr5jjMq/zTgWTNNCphVz3EowrBlp0Xg0a8hwjQYYTzpgJ5cydkMX8YfwYgyPRcy2R0ORlce4AAqSUMj71fZu9n/Bh5ymnP5CSwBj9OFCLGLxiBBVxZwLH7Ki12ziz9ZQaKFk6qOZCZp0MqKxpbXwQUQPxZIZyjFCDCfaCz+hhYq30NnpMk2IerjR0xiTPBlOZCiMZ7rZlU8vNUyL2WiTQns7Pl9TyFYpyUFsIJ6Q/ZmeCLpI5kZPrsPi2iFaGPKryM66E2EEaNGqXKSL0BA1xId8lspBUgwXdMW5rWqn2U0bPb246q5Cs5vbgsRFPSpiUwQx2QKFds8nhaJKvaoQuVQqtNdtMtYYFNIEM6zkIq8MhMLVyYVCyi3M8rEcbUYlj1HR0Dqm6EqpO2VyCBpDLtEoHYk3DYTg8wrXe4uuUEgbFZGI5EmUPqXCXwUKhUbjmWqBs6RznC2FVlAwM3KFeeFeKUQSRYG4CfIReuIzNHNd2X9vjBEscOn6zLSZYeJdc59CfVfh3JTlMidmLYr/vQrtwTr5IBQDJHVRLVZBzVZROmhusEfhEKkmHlPKagibxGQhukz8kaJUr6+HuBlqzRi6zN683xxWkUEP8qGWBLqRjtfjjNsvKOQyQUh8iqmxUKgbxbtRwGhYXNTWtzd4zyqMaH3V+0a+laAG3G41ODOwKtvIFDt974AqTjPfbx2qsDnTd7aMe6NUa5K/J1V54yBKUMSoJRAKJ9KJLaQVStGhiBYZuq2eaP5yhdqWQh+e4GkXBWtM2qtUKIc92x6Q7U0Lm/58jGQctbWqzZgxl2Jpa7Oh8LnOO1cYIa57cqbazS7d49iv0JlTo7JojKvVcTJDbbFoO0cKdY6OrN26MZHvLWoHu2hHYuq8/H5gzNCvPK9QoxlBpObdEwlmSCu8IYThyBp0sBMe21Y86/mwFT7vCMXx1jo0GmE49J9XSGXWCG58muuZuUC47VeIMkt9omFZVkBtqJU4uUJm2BYWE2m1bV/YCtPRXo0MqpbUcT2vENZRx8hloy0EU/uYiHAOLWo/0aPRuBbmi5oh2xpNRoYpmt6VQrLp384ehSSIWTZs4dRJRi8pROXNm1r6ITtQUS1648CmAoURYrkkq7oQTvnZYKIvtZ9TiJVXSCKoUdVXRvq9gKaMelAW0xx0ZlQ2DG6zoD4vKj4adWEOXXhXoVyfwjHCFmayvC/dpxALDT0sY8xGo90ItZVC5wbRhVVijoqc05obnO4uGSYThnQsHq8ULjiXjX8Yi0o1yzPFcCEO43xT4KS6Ka5msq7cgqGTF2MmziTgRt5nJKLTXpAPY4OLvpiCK4nla6zoETdwHqqi2KK0JzEPRnsUYs+ZjOzAsgfpOG9QqB7Cm+FEt/iom5cN2tZ2GtyyjFFSFQ+6w3k6z3WgV01TOT9+KmjkObPVEIfzVYsUpgMMMkiHRa+A48DsofPsz9M0v1i7XoxBA887+cnNRtrIX0f9kW0FbDIWi6GNc+dF5/MsrSjyHa3Ydgsfktp2tNvqtaJorXjnxSE4+SCbXwRwWruXefVbAeJt//23ilcKX7jIeT+ryKP0D+a/oJAVnfcfij+zgsEHn/ecNk5nOByedyo5iD9c4vl9N12hUCgUCoVCoVAoFAqFQqFQKBQKhUKhUCgUCoVCoVAoFAqFQqFQKBQKhUKhUCgUCoVCoVAoFAqF4v9l0jKNmCpdTgAAAABJRU5ErkJggg==;" vertex="1" parent="1">
          <mxGeometry x="490" y="350" width="80" height="80" as="geometry" />
        </mxCell>
        <mxCell id="R1qdB8vJToaFdnoYevDq-3" style="edgeStyle=orthogonalEdgeStyle;rounded=0;orthogonalLoop=1;jettySize=auto;html=1;entryX=1;entryY=0.667;entryDx=0;entryDy=0;entryPerimeter=0;" edge="1" parent="1" source="R1qdB8vJToaFdnoYevDq-6" target="rMf_m6I-8TjlrymASvV_-3">
          <mxGeometry relative="1" as="geometry">
            <Array as="points" />
          </mxGeometry>
        </mxCell>
        <mxCell id="R1qdB8vJToaFdnoYevDq-5" value="" style="shape=image;verticalLabelPosition=bottom;labelBackgroundColor=default;verticalAlign=top;aspect=fixed;imageAspect=0;image=data:image/png,iVBORw0KGgoAAAANSUhEUgAAAaoAAAB2CAMAAACu2ickAAAAwFBMVEX///8AAADAJCi8AAB9fX1ERES6urro6Oh1dXW+vr5jY2OTk5PX19fAIiZwcHBpaWlRUVGnp6eEhISzs7M/Pz++Fxy9AAy+ERe/HSGenp709PS9DxUPDw/++vrlsrPourvOzs7x1dbQamzNX2Hu7u7f398uLi7GQEOZmZlZWVn24+T78fHISEsfHx/hpabLVVc2NjaMjIzUeXvdl5nz29ztysrENjrXhYbHRUjclZbVfH4dHR3PaGrKUlQpKSnFOj1/OUK0AAARhElEQVR4nO2daVvyPBOGgSiCUhWxpVDZ9UZBcQXE1+X//6sXCklmkklpsSz14ToO/VC65mySycwkTaX+8zpMCx1s+172CtQeVWK0R5UY7VElRntUidEeVWK0R5UY7VElRntUidEeVWL0x1D1W/XXj8/H9/fufac9Hgx7276hGPWHUL0N2hZjTtl257LLnsOc+8mwtu07W0WFfL6At/wVVK1xhnm2lVFluWXH6dT7276/iLqdI7mF2/4Eqv5rhhGYJC7HaQ+3fZMRVP3mTL6v5dY/gOqtzTwzpwUtm/00tn2jofUtofxPbk08ql4nqEIBuU4mIbAu0mmKSsJR1V6YHYbTvGqxbmvbNxxC1TSSMIqSjaruhAfl1yz2svvmYB6jyvPtSUbV7zBD02dZpjaxbO28fVHEqCp8e4JRDT29Svm2+XRwNf9XdgnrnU22feNLVMGohMGeXFQTrUq5HnPbr41Wr1+r1fq9VmPyaTPPVWE5j7vdCGYxqhLfnlhUn47GqVPX/Ui9ekejZWd2ekR8jVEd8e1JRXVfxqDYe91UV2r1LsOwXOdtozcbUXeQ1LnYnExUta6NQXWCrfBWB8OynF222o/ISpVMVJiUxR6XV5LWF+rarJ2uV00JJS+3JhLVFyRlu+GcEA0b8fV2OT5y8zRH8nQDNiYR1Sfopyz2EvawWhtWLHe3bYvCbe70BEdBEohqAmw/l0Xx69UhK/t+bXe4HiUP1ZBBsztaM9azgHXhfazpDtekxKHqO7Jm2F3CQO8N66/j8eS1TkXr+z+gw4pUI7evxKF6lGWtN2H9ettijlcu22XPc1jmpaF2SLV3ebzl7XR3pSppqAbMTGr4yRwUu7Jsh7WVERQ09O3Oxu47BiUMFWj+3BFu/YbvVIzRstk99qXXMrK/SlQTmDBUbVElrDJqvfqKPwLIZR20a0/itjKbvf1fKVmoWrL5Y6iu1AODwTarw52BDem9bvYBfqNkoXoUNcdBUacXU4yR1x48UB578ofdDohAJQqVrFRuF2yu3Xs0ISDvC55oJJAnqFolClVHlDAD3tbaT5gECzQGk8wtZ/OPsaKShKonCrg8BptxQGQWs/ecqdRcW2Tbv4hjnLp6GU35i/Pvq6un45Om9tN1yf/t+/ygdKMfiFUo5vx9D3PFpftSCoOq2izdXlw8V/IrXSGajoq5w+nzPFyeneSrym9jXr5o7NpBQUbXY1+T+nA4bAxelJTb8qc8SBr97g++SLWU5Sr5qa0o1eEZ3VP2Ev72UAx4ruZZGulkcaIjebms3Flua8pTLEVVuHgAV7gT5wNPdBR0AaG8/Jl7jMER87eg9A89z2EJnUEUPOxgXmHg3mJdmJ7+NvbKABYbyJ8mAjDDY2QY15ve59F3GkskEKWyV2lV2RStvHqWGfX5E4MtYncQBr6TJ1mCKovLzr/E/H3QbxCc6ow4FTgTv9IpLoEmfCnmugKhtQaHYjkSBzDfpwhHauZYfwyGWxaTXkFZrewxOgKjamp3xCPo1Tv9p3T6lHjw1M0ltWv6avbGkqiO5bZjeZpAVE3iZVgUK0S1KM7z4DsG93ux2JSTm6aNxzN5MUldDH9h4Y4gCSptrPcjG0j3XW4XvZVlof0hqhuCVDr97Rc/ebOoFnBVDLv6BRkTKlCSWJfVNaAi39LZxfgJRFsGzL+BA0gZkjHbch9gQ7yJ6ohbQIiqSN/R07RbMBVNOqde/sy466ycYkFV1ds+qZu4UVXAjShatDjCxwDqRk1OAQnIlhgLVpYrt/7wQ8uoMh4Z7wOU1HXAj3l8cfNzzXQMk/5WRbXkluFrFQeqIJ34O7/yhsyT1sEAuB0CcpDaog0E1eqVH+siD30YVGndoABClz4P2lM504qogt4bVetGNU+wEk4lYBzI1HRnQFxSSPRo1khsE6M0y4HOpVCoAgVt9rBP6GtFVLRBQWvtqHzTgptswBsu/a7uYxApumPKWPq2OFCB2WvZ5XsDrYbqWD+RWWtHlb4GlcCWntcP4XNgKDhfGzYauOf6IKxHYVF60GHxe1RpkWhU1X76d1HK50u3tAm1EqqSepbvg2K+mS3myEY6TlTfx7mDU62Bv53WIEcvWDEmtqHjvNf2Z4JYsEnsM71Oio4Ojaw0VHe+1+TohCzd42KzUMie4o3P/Fyq8ZeTqbLZJ/1kq6BS34YD6VEqEPUtPlRF7re5wT89gYKVzZX0CULv7WARurKcEXBciGGUrH8tDt+FcXsVVdPIcGqb8knV16jgn3hZ4b2fjlJQWnVYCdVB0CUKmk8hLlRo+IhHn9XURJS1AFDn9ICxAHP9XEvaC6JSOiJG32fE4SoR4PbURr3wKf8Hf6hpBUKVyRE6Jr0SKmz96cWutk8xoTrH+6MuuZl6WRhxli32EO5bMDLqoaxMUF34CAzsKwwVGAjBqJAHFr/BovL4QrNC550VRqsNjaeNl9KdiB/Co0IeHsqdp7CKCZXqSIeDx4qIVYEq8MlNcEf6KdooIgIaRm7r222xSZqAwFpHqIAxp/4EmkZf0GSeO0XRRHnlPSRPKLaHRwUP/0ddIoVfh3hQnagHwBf1IPW1KFdglr/rI62ag4JUIK7Fq6Arw8H34njQqaHik250X2SPtNCzdhgqI/U9nAt7rsTm0KhQXaZDVLgjiQfVtXoANG7uUl2OSjZqI9GAiVqBHO3IEcHNEkuG+h+XosK9NG5ulOgULBLfBCwE7CyEnHdia2hU0PQkWlhfaGAQC6pL/Yh/8FeOimjArLJANcTTTkFryW0QsKlD+D8QqivlhoJeYtjB+yV5S1IIOqPYGhoVPFp5rYTQKxMLKq39Q8OSBwrVaDkqGeIlUFGuKoRKjWggQ0G9WxUV7NBv1Z2po6KjghTIztAXrLmxoMrrR4D25ir1rjeA3DdueQJVHzeAgCtvAIFffiTMCkMDeJHCgk2y1omD/tt/fAjB9MZjq1JsDIsKdnXmbAE4eI8FFdEpwpicqAKgqL+IvqaLcmzlIEqYFbacqiNH0AYLUHt88Nux+psSBIdYHwyFmMItoNgYFhW0Mc15L7AXjQUVYSKhsFubG+vSMyQ8EMBYb8BqBcNTHLUcVwkTBAzVMCotVQL8ptY42H3PUMHGydTjK5cTG8OiuqMO1gRfmlhQEUcgVNzhCsw9EXEqg7SYR5DABOPCnmbsC9IuTOeEZddU7wj8pnU/Cir4LgelMv0GFWhzCatMCOy2EVQisihtAGFDwJyJ2juHYsEMpaHmL5QeRKO7VlmRFJVrRf0NlO+ZcvNEPywE3HTUqQJRpcn9NIHhYByoqKE2QtXgVUi2dtKGQDGQMfNs17UZSl+SOZqW6/t7exkZloRTd8Ki0mpKAKomWYJzgXKkThWECrZsAW0sBBMHKqoCI1TCDw6ceMLdgBPE+oP2V2eMpk71gWvQYp3XQRu4NaABuBZU2nnoYqFOFRZVUGp0zKioYQFCJaoQ6FlEYMRiS6aKjnEKbhlmSeMI8h+sVeDAjaCSvglGjKLAAIpSDw+3sFD7FxsqaIWbkm5nAn0+daqwqCivOhcYA28GFWWag6khgVNFf0wzGjPazMW4UEFj3eysSNXQM+qnCmtWBFmAYLfNoBKBRBCdh5NvAlawaJcNmAjIcaGCPsGAVx76qqhThUUVMK6CTxQOFaiGPPkgEioyGUw4LDKuZeyuxo6Bkg9eyXWKCxXcV3X7Gp9RP1UgKuhmNPuuiGEDOJB6jUB4mrtmI6GSPiMynTnj2ob02hdJytUaQtdWZpjGhgrOKTB7fUiHQ1hU0IFYSpkEIyV57QJUwYMDVkMlBsFwdqmc1ouHvEK9rtzDbreVqaiutoBZbKigg44IG8yFEo6oU4V21xLzGvSb5qgAvafgI/hIPxoqkKAEBrdgFQrL+VIrVm0CJ+04/dQjmo7l/GitZmyo6FCUogq50ypBED00uxCKNC9QwddIPwL2n/wxo6GSI17oSHpDK8exxwZo0NSpcDPCYz6V0XI9h5izHRsqaNsZvYBwn1+GFk2DYJRcsUAF3xC9cc7qB0RFVRc1AlptyJeecR2v89oYtlrDwceIQVB80mLvw2L+2t5fA2ohhNhQ4Ug5nVuBMmV+GbA3dIg41XRR8rDG628RPCsvgoioZDYtGgsN8Ph2vtS6Pm2bSedTrzVs9QwLVsSHCmXHkUFaZaYddaoIaTBkxpKSNprXH1LrrFBzwF+xqKhE1CPjQaffYMkCIyqpQMWHCrduRPuk5oBSp4qQXEZ519WU4DxxnOr3h8k+33xjVFQ1yQTN3mgsZUVbh5RiRIUSYfSxpjZ7lTrVElT4EpoVqE2u5FhQNn3VfIwIoEZFlZrIqW8Z2IC9ZYL8EVMr3Q79JZAYUeF3Hq8ZrPZT8hlTUVApswsemugSGORMHBVqOb8hK/wCifNFRlWTH/nAa/nVPowLl83swnb4lZTiRKXOJT4TT35DTSyhTrVseoFK41w0Z9dFYtqO+BVvFtM6jpRkb3GdyKhSdWlCOLjzad0bYLmsG+XjOnGiSumrINw9V4rPZ+rEAqVcosyv0k91eFAp3ubomdwClYr48KJSPMmpEyDlQ0ZHBZx+GbX7GT5i49xvJ8vsSwFl/CDFXLGiijJNd0VU5rn+lKQJEWZvkGm1Aio404OpyyP1JiM2+xLSXFOjnY0mqv9iwLqBYchYUamfDQsWdarlE0z1DilA+Uh31pRXWQEVGkURZl2vMe6MZsthlUedSUMPjEwPN/p1fcWLKmB9EV3UqUJM2z7Vz2QUMMyXz+6FYbZVUKU6cPltw2CpVjO0cpMZaCsoDhkzqiWsrkhvXMR1K4Inbj9A4waOoejlhKRQDsBKqOAywRmnE2mVzMXCMBYzL9gYNypiIqnUv2ocS4wE1qurKmzq0HA3mBW+xkqolImJmfCfN+qN5HJlxlyM2FGlbmh7L+2PiuNZY8lcdZ+qpPd1rqA1hZTnWw1VaghZhf924gBa817XsFf8qEwLffnlFtNyWDeGVZZmO5pRmWv8k+r7XREVHF3NSj0TZtzU+kETGo3d1TpQpa6VkeVMzzXjM9LrAYI0NCKVjCr1p+bslwBUqaruM5nqSg8pgzY2EirFmW6pq97relOWYTe7BKvPJ1zPWr7C4SXXk/Y0dPly1UooJvKvsvAPXBek5IOLWzgBl7mRe5KJFFll4RLuuAhCNX3eirqCxjGVt52Vt0TF3gqy1NSIdx07aF3WDUoumw6O8ff7QjtvI+j6SMgQkC0Un0/Pjs9yt1lzzsqvVM0/n/sOh4fDg5K4CYiqSR3mL8Dr1yZyfd7fSnWmu075g65arbHlYJeTpY2d/7SWolq3Wrbi8rNsx+sMhtAV0W8N2q72pRDX2fkPbodWReiWjjOnwqdkr0/9ey29b5YuwcrvnZePj4+XzrvNHE//3nZ5tMtfWYwoQMGYwAYt+aCJDuuU/r3tOS/Xnsklvooe6duMSdBViArzHIbnutUaeSFC9VB2OUmfQVouMJwy5mxCv5MpA20DmgR+YUeVy16S87WWUAL2uTEtFC5ftsl7U9Vvh4blMi2jM/ECI1jTFFMYMwuY6r8J9dp6RJFq+paPkxMos5eA3CVoxvBG1Bs7DmlDyArlad9c/BsiFuZWBReAC5jotTE1OsoXMaWmFjzrDhL1rdIIAhzoReZQQL+50XszqdZ4ycyj9RKS5doOszuDPzSQUnW2rM6goNSm786sfuP1s+s6jLHZH/NGnXH9z1kSWChFgmgCURIb+XGZbarfe2u1Wm+9/h8zzGlBFHpkBsccm5u/vb2kcO7nOXJHVHEk/3Bb97iXL3Wh9TvxMb2CGnzelgNwr4X0Lzc9HOdyZ3qOy871VP89LUsS49r2fe4VNtt63/ztgMjPDKoyL5aw1wYVIv88aPXIvTaopfUqaPHIvTaq60Db4t+aMqT2WkkB0xi0tVv32q6q9MfQxCfY99ol5bX5Aqf7TmpndZM9yd0dXl4e3uVus9vJT/o/oqNfWUHRIDcAAAAASUVORK5CYII=;" vertex="1" parent="1">
          <mxGeometry x="187" y="420" width="106" height="29.36" as="geometry" />
        </mxCell>
        <mxCell id="R1qdB8vJToaFdnoYevDq-6" value="MailGun API" style="rounded=1;whiteSpace=wrap;html=1;fillColor=#f5f5f5;fontColor=#333333;strokeColor=#666666;" vertex="1" parent="1">
          <mxGeometry x="200" y="370" width="80" height="40" as="geometry" />
        </mxCell>
      </root>
    </mxGraphModel>
  </diagram>
</mxfile>
